<svg width="24" height="24" viewBox="0 0 24 24" fill="none" xmlns="http://www.w3.org/2000/svg">
<path d="M12.0039 0C6.99403 0 5.52882 0.00517032 5.24402 0.0287999C4.21591 0.114284 3.57615 0.276208 2.87917 0.623305C2.34205 0.890106 1.91843 1.19936 1.50035 1.63287C0.73896 2.42346 0.277507 3.3961 0.110458 4.55226C0.0292467 5.11354 0.00561688 5.228 0.000818394 8.09496C-0.00102299 9.05061 0.000818394 10.3083 0.000818394 11.9953C0.000818394 17.0025 0.00635159 18.4666 0.0303531 18.7509C0.113415 19.7516 0.270305 20.3812 0.602552 21.0699C1.23751 22.3882 2.4502 23.3778 3.87886 23.7471C4.37354 23.8745 4.9199 23.9446 5.6213 23.9778C5.91848 23.9908 8.94744 24 11.9783 24C15.0091 24 18.0399 23.9963 18.3297 23.9815C19.1418 23.9433 19.6134 23.88 20.1349 23.7452C21.5728 23.3741 22.7633 22.3992 23.4112 21.0625C23.737 20.3905 23.9022 19.7369 23.9769 18.7884C23.9932 18.5816 24 15.2847 24 11.9922C24 8.69907 23.9926 5.40821 23.9764 5.20142C23.9007 4.23765 23.7355 3.5896 23.3992 2.90461C23.1232 2.34388 22.8168 1.92514 22.372 1.49699C21.5781 0.738523 20.6072 0.276943 19.4503 0.110039C18.8897 0.0289815 18.778 0.00497991 15.9096 0H12.0039Z" fill="url(#paint0_radial_2339_1133)"/>
<path d="M12.0039 0C6.99403 0 5.52882 0.00517032 5.24402 0.0287999C4.21591 0.114284 3.57615 0.276208 2.87917 0.623305C2.34205 0.890106 1.91843 1.19936 1.50035 1.63287C0.73896 2.42346 0.277507 3.3961 0.110458 4.55226C0.0292467 5.11354 0.00561688 5.228 0.000818394 8.09496C-0.00102299 9.05061 0.000818394 10.3083 0.000818394 11.9953C0.000818394 17.0025 0.00635159 18.4666 0.0303531 18.7509C0.113415 19.7516 0.270305 20.3812 0.602552 21.0699C1.23751 22.3882 2.4502 23.3778 3.87886 23.7471C4.37354 23.8745 4.9199 23.9446 5.6213 23.9778C5.91848 23.9908 8.94744 24 11.9783 24C15.0091 24 18.0399 23.9963 18.3297 23.9815C19.1418 23.9433 19.6134 23.88 20.1349 23.7452C21.5728 23.3741 22.7633 22.3992 23.4112 21.0625C23.737 20.3905 23.9022 19.7369 23.9769 18.7884C23.9932 18.5816 24 15.2847 24 11.9922C24 8.69907 23.9926 5.40821 23.9764 5.20142C23.9007 4.23765 23.7355 3.5896 23.3992 2.90461C23.1232 2.34388 22.8168 1.92514 22.372 1.49699C21.5781 0.738523 20.6072 0.276943 19.4503 0.110039C18.8897 0.0289815 18.778 0.00497991 15.9096 0H12.0039Z" fill="url(#paint1_radial_2339_1133)"/>
<path d="M12.0039 0C6.99403 0 5.52882 0.00517032 5.24402 0.0287999C4.21591 0.114284 3.57615 0.276208 2.87917 0.623305C2.34205 0.890106 1.91843 1.19936 1.50035 1.63287C0.73896 2.42346 0.277507 3.3961 0.110458 4.55226C0.0292467 5.11354 0.00561688 5.228 0.000818394 8.09496C-0.00102299 9.05061 0.000818394 10.3083 0.000818394 11.9953C0.000818394 17.0025 0.00635159 18.4666 0.0303531 18.7509C0.113415 19.7516 0.270305 20.3812 0.602552 21.0699C1.23751 22.3882 2.4502 23.3778 3.87886 23.7471C4.37354 23.8745 4.9199 23.9446 5.6213 23.9778C5.91848 23.9908 8.94744 24 11.9783 24C15.0091 24 18.0399 23.9963 18.3297 23.9815C19.1418 23.9433 19.6134 23.88 20.1349 23.7452C21.5728 23.3741 22.7633 22.3992 23.4112 21.0625C23.737 20.3905 23.9022 19.7369 23.9769 18.7884C23.9932 18.5816 24 15.2847 24 11.9922C24 8.69907 23.9926 5.40821 23.9764 5.20142C23.9007 4.23765 23.7355 3.5896 23.3992 2.90461C23.1232 2.34388 22.8168 1.92514 22.372 1.49699C21.5781 0.738523 20.6072 0.276943 19.4503 0.110039C18.8897 0.0289815 18.778 0.00497991 15.9096 0H12.0039Z" fill="url(#paint2_radial_2339_1133)"/>
<path d="M12.0039 0C6.99403 0 5.52882 0.00517032 5.24402 0.0287999C4.21591 0.114284 3.57615 0.276208 2.87917 0.623305C2.34205 0.890106 1.91843 1.19936 1.50035 1.63287C0.73896 2.42346 0.277507 3.3961 0.110458 4.55226C0.0292467 5.11354 0.00561688 5.228 0.000818394 8.09496C-0.00102299 9.05061 0.000818394 10.3083 0.000818394 11.9953C0.000818394 17.0025 0.00635159 18.4666 0.0303531 18.7509C0.113415 19.7516 0.270305 20.3812 0.602552 21.0699C1.23751 22.3882 2.4502 23.3778 3.87886 23.7471C4.37354 23.8745 4.9199 23.9446 5.6213 23.9778C5.91848 23.9908 8.94744 24 11.9783 24C15.0091 24 18.0399 23.9963 18.3297 23.9815C19.1418 23.9433 19.6134 23.88 20.1349 23.7452C21.5728 23.3741 22.7633 22.3992 23.4112 21.0625C23.737 20.3905 23.9022 19.7369 23.9769 18.7884C23.9932 18.5816 24 15.2847 24 11.9922C24 8.69907 23.9926 5.40821 23.9764 5.20142C23.9007 4.23765 23.7355 3.5896 23.3992 2.90461C23.1232 2.34388 22.8168 1.92514 22.372 1.49699C21.5781 0.738523 20.6072 0.276943 19.4503 0.110039C18.8897 0.0289815 18.778 0.00497991 15.9096 0H12.0039Z" fill="url(#paint3_radial_2339_1133)"/>
<path d="M12.0049 3.08154C9.58149 3.08154 9.27736 3.09213 8.32552 3.13541C7.37556 3.17888 6.72713 3.32917 6.15974 3.54968C5.57285 3.77742 5.075 4.08208 4.57901 4.57788C4.08265 5.07351 3.77776 5.57099 3.5491 6.15727C3.32787 6.72441 3.17729 7.37254 3.13454 8.32144C3.09197 9.27255 3.08081 9.57666 3.08081 11.9983C3.08081 14.4199 3.0916 14.7229 3.13472 15.674C3.17841 16.6233 3.32881 17.2713 3.54928 17.8382C3.77739 18.4247 4.08227 18.9222 4.57845 19.4178C5.07426 19.9138 5.57211 20.2192 6.15863 20.4469C6.72637 20.6674 7.375 20.8177 8.32478 20.8612C9.27661 20.9045 9.58056 20.915 12.0038 20.915C14.4274 20.915 14.7307 20.9045 15.6825 20.8612C16.6325 20.8177 17.2816 20.6674 17.8494 20.4469C18.4361 20.2192 18.9332 19.9138 19.429 19.4178C19.9254 18.9222 20.2302 18.4247 20.4589 17.8384C20.6783 17.2713 20.8288 16.6231 20.8735 15.6742C20.9162 14.7231 20.9274 14.4199 20.9274 11.9983C20.9274 9.57665 20.9162 9.27275 20.8735 8.32162C20.8288 7.37235 20.6783 6.72441 20.4589 6.15746C20.2302 5.57099 19.9254 5.07351 19.429 4.57788C18.9326 4.08189 18.4363 3.77723 17.8488 3.54967C17.2799 3.32917 16.6311 3.17888 15.6812 3.13541C14.7293 3.09213 14.4263 3.08154 12.0021 3.08154H12.0049ZM11.2044 4.68842C11.442 4.68805 11.7071 4.68842 12.0049 4.68842C14.3875 4.68842 14.6699 4.69696 15.6107 4.73969C16.4807 4.77945 16.9529 4.92471 17.2675 5.04676C17.6839 5.20837 17.9808 5.40157 18.2929 5.71365C18.6053 6.02575 18.7986 6.32297 18.9607 6.73908C19.0828 7.05302 19.2284 7.52487 19.268 8.39426C19.3108 9.33423 19.3201 9.61659 19.3201 11.9963C19.3201 14.3759 19.3108 14.6583 19.268 15.5983C19.2282 16.4676 19.0828 16.9395 18.9607 17.2534C18.799 17.6695 18.6053 17.9658 18.2929 18.2777C17.9806 18.5898 17.6841 18.783 17.2675 18.9446C16.9533 19.0672 16.4807 19.2121 15.6107 19.2519C14.67 19.2946 14.3875 19.3039 12.0049 19.3039C9.6222 19.3039 9.33982 19.2946 8.39914 19.2519C7.52912 19.2118 7.05693 19.0665 6.74218 18.9444C6.32576 18.7828 6.02831 18.5896 5.716 18.2775C5.40368 17.9655 5.21034 17.669 5.04823 17.2527C4.92609 16.9387 4.78053 16.4669 4.74093 15.5975C4.69817 14.6575 4.68962 14.3752 4.68962 11.994C4.68962 9.61288 4.69817 9.332 4.74093 8.39203C4.78072 7.52264 4.92609 7.0508 5.04823 6.73649C5.20996 6.32037 5.40368 6.02314 5.716 5.71106C6.02831 5.39897 6.32576 5.20578 6.74218 5.04379C7.05673 4.92118 7.52912 4.77629 8.39914 4.73634C9.22232 4.69919 9.54134 4.68805 11.2044 4.68618L11.2044 4.68842ZM16.7682 6.16897C16.177 6.16897 15.6973 6.64769 15.6973 7.2386C15.6973 7.82934 16.177 8.30862 16.7682 8.30862C17.3593 8.30862 17.839 7.82934 17.839 7.2386C17.839 6.64787 17.3593 6.1686 16.7681 6.1686L16.7682 6.16897ZM12.0049 7.41917C9.47422 7.41917 7.42241 9.46947 7.42241 11.9983C7.42241 14.5271 9.47422 16.5765 12.0049 16.5765C14.5356 16.5765 16.5867 14.5271 16.5867 11.9983C16.5867 9.46947 14.5355 7.41917 12.0047 7.41917H12.0049ZM12.0049 9.02605C13.6476 9.02605 14.9794 10.3567 14.9794 11.9983C14.9794 13.6397 13.6476 14.9705 12.0049 14.9705C10.3621 14.9705 9.03047 13.6397 9.03047 11.9983C9.03047 10.3567 10.3621 9.02605 12.0049 9.02605Z" fill="white"/>
<defs>
<radialGradient id="paint0_radial_2339_1133" cx="0" cy="0" r="1" gradientUnits="userSpaceOnUse" gradientTransform="translate(12 12) rotate(90) scale(12 12)">
<stop stop-color="#FF005F"/>
<stop offset="1" stop-color="#FC01D8"/>
</radialGradient>
<radialGradient id="paint1_radial_2339_1133" cx="0" cy="0" r="1" gradientUnits="userSpaceOnUse" gradientTransform="translate(6.37482 25.8485) rotate(-90) scale(19.1573 20.3254)">
<stop stop-color="#FFCC00"/>
<stop offset="0.1242" stop-color="#FFCC00"/>
<stop offset="0.5672" stop-color="#FE4A05"/>
<stop offset="0.6942" stop-color="#FF0F3F"/>
<stop offset="1" stop-color="#FE0657" stop-opacity="0"/>
</radialGradient>
<radialGradient id="paint2_radial_2339_1133" cx="0" cy="0" r="1" gradientTransform="matrix(3.97636 -6.8514 8.91974 5.1768 12.6065 23.6615)" gradientUnits="userSpaceOnUse">
<stop stop-color="#FFCC00"/>
<stop offset="1" stop-color="#FFCC00" stop-opacity="0"/>
</radialGradient>
<radialGradient id="paint3_radial_2339_1133" cx="0" cy="0" r="1" gradientTransform="matrix(-14.5969 4.11024 -1.4 -4.97325 3.25629 0.977273)" gradientUnits="userSpaceOnUse">
<stop stop-color="#780CFF"/>
<stop offset="1" stop-color="#820BFF" stop-opacity="0"/>
</radialGradient>
</defs>
</svg>
