<svg width="40" height="40" viewBox="0 0 40 40" fill="none" xmlns="http://www.w3.org/2000/svg">
<path d="M23.334 5.6001H16.6673C10.3819 5.6001 7.23923 5.6001 5.2866 7.47461C3.33398 9.34914 3.33398 12.3661 3.33398 18.4001V21.6001C3.33398 27.634 3.33398 30.6511 5.2866 32.5255C7.23923 34.4001 10.3819 34.4001 16.6673 34.4001H23.334C29.6193 34.4001 32.7622 34.4001 34.7147 32.5255C36.6673 30.6511 36.6673 27.634 36.6673 21.6001V18.4001C36.6673 12.3661 36.6673 9.34914 34.7147 7.47461C32.7622 5.6001 29.6193 5.6001 23.334 5.6001Z" stroke="#282828" stroke-width="2" stroke-linecap="round" stroke-linejoin="round"/>
<path d="M14.166 16.8C15.5467 16.8 16.666 15.7255 16.666 14.4C16.666 13.0745 15.5467 12 14.166 12C12.7853 12 11.666 13.0745 11.666 14.4C11.666 15.7255 12.7853 16.8 14.166 16.8Z" stroke="#282828" stroke-width="2" stroke-linecap="round" stroke-linejoin="round"/>
<path d="M4.16726 28.0001C5.83392 25.8668 10.1819 21.6001 11.5153 21.6001C12.9042 22.6668 15.8486 24.9601 16.5153 25.6001C19.0153 23.0763 24.3486 17.9431 25.6819 17.6001L36.6237 28.3201C36.9015 30.4534 35.1673 34.4001 29.1673 34.4001H10.834C7.92728 34.1334 1.85786 31.8401 4.16726 28.0001Z" fill="#5C4033"/>
<path d="M25.6819 17.6001C24.3486 17.9431 19.0153 23.0763 16.5153 25.6001C15.8486 24.9601 12.9042 22.6668 11.5153 21.6001C10.1819 21.6001 5.83392 25.8668 4.16726 28.0001C1.85786 31.8401 7.92728 34.1334 10.834 34.4001H29.1673C35.1673 34.4001 36.9015 30.4534 36.6237 28.3201M25.6819 17.6001C28.1819 20.0001 34.6237 26.4001 36.6237 28.3201M25.6819 17.6001L36.6237 28.3201" stroke="#282828" stroke-width="0.5"/>
</svg>
